<svg xmlns="http://www.w3.org/2000/svg" viewBox="0 0 681.14 522.59"><defs><style>.cls-1{fill:#1e4069;}.cls-2{fill:#f5831f;}</style></defs><g id="Capa_2" data-name="Capa 2"><g id="Capa_1-2" data-name="Capa 1"><path d="M106.83,207.42c-.09.27-.16.54-.23.81.08-.29.16-.58.26-.86Z"/><path class="cls-1" d="M0,450.07H5.72v72.52H0Z"/><path class="cls-1" d="M60.87,450.07v72.52H53.53l-31-62.68v62.68H16.84V450.07h6.9l31.52,63.61V450.07Z"/><path class="cls-1" d="M114.19,455.25H94.65v67.34H89V455.25H69.72v-5.18h44.47Z"/><path class="cls-1" d="M128.44,455.25v28.38h24.49v5.18H128.44v28.6h32.91v5.18H122.72V450.07h38.63v5.18Z"/><path class="cls-1" d="M207.76,517.41v5.18H170.85V450.07h5.72v67.34Z"/><path class="cls-1" d="M288.17,455.25H268.64v67.34H263V455.25H243.71v-5.18h44.46Z"/><path class="cls-1" d="M302.42,455.25v28.38h24.5v5.18h-24.5v28.6h32.91v5.18H296.7V450.07h38.63v5.18Z"/><path class="cls-1" d="M388.44,458v12.75h-5.62V460.63c0-3.83-1.72-5.38-5.93-5.38H356.17c-4.21,0-5.83,1.55-5.83,5.38V512c0,3.84,1.62,5.39,5.83,5.39h20.72c4.21,0,5.93-1.55,5.93-5.39V501.87h5.62v12.74c0,4.46-3.46,8-8.53,8H353.15c-5,0-8.53-3.52-8.53-8V458c0-4.45,3.56-8,8.53-8h26.76C385,450.07,388.44,453.59,388.44,458Z"/><path class="cls-1" d="M442.62,450.07v72.52H436.9V488.81H404.74v33.78H399V450.07h5.72v33.56H436.9V450.07Z"/><path class="cls-1" d="M524.64,458V485.5c0,4.56-3.56,8-8.52,8H489.57v29.11h-5.72V450.07h32.27C521.08,450.07,524.64,453.59,524.64,458Zm-11.54-2.79H489.57V488.4H513.1c4.2,0,5.93-1.66,5.93-5.49V460.63C519,456.8,517.3,455.25,513.1,455.25Z"/><path class="cls-1" d="M540.19,455.25v28.38h24.5v5.18h-24.5v28.6H573.1v5.18H534.47V450.07H573.1v5.18Z"/><path class="cls-1" d="M626.85,458v23.31a6.29,6.29,0,0,1-4.75,6.53,6.48,6.48,0,0,1,4.75,6.63v28.08h-5.61V495.75c0-3.73-2-5.17-5.94-5.17h-27v32H582.6V450.07h35.73C623.4,450.07,626.85,453.59,626.85,458Zm-11.55-2.79h-27v30.14h27c3.89,0,5.94-1.55,5.94-5.28V460.63C621.24,456.8,619.51,455.25,615.3,455.25Z"/><path class="cls-1" d="M681.14,450.07v64.54c0,4.46-3.56,8-8.63,8H646.17c-5,0-8.52-3.52-8.52-8V450.07h5.72V512c0,3.84,1.62,5.39,5.83,5.39h20.39c4.1,0,5.83-1.55,5.83-5.39V450.07Zm-19.75-2.8h-4.86l7.56-8.08h5.5Z"/><path class="cls-1" d="M0,405.91V95.79H86.1V405.91Z"/><path class="cls-1" d="M385.84,0V75.58H289.13V405.91H203.32V75.58h-97V0Z"/><path class="cls-1" d="M631.6,0q22.41,0,36,12.88t13.56,33V226.17q0,20.37-13.56,33.12T631.6,272H499.8V405.91H413.4V0ZM594.75,86.05q0-10.47-10.91-10.47h-84V196.73h84q10.9,0,10.91-11Z"/><path class="cls-2" d="M553.12,357.37v9.5H543.3v-4.79c0-1-.41-1.55-1.53-1.55H528.24c-1.13,0-1.53.55-1.53,1.55v10.75c0,1,.4,1.54,1.53,1.54h18.92c3.54,0,6,2.4,6,5.57v20.41a5.61,5.61,0,0,1-6,5.56H522.84a5.65,5.65,0,0,1-6-5.56V390.14h9.82v5.49c0,1,.4,1.55,1.53,1.55h13.53c1.12,0,1.53-.54,1.53-1.55V384.58c0-.93-.41-1.47-1.53-1.47H522.84a5.61,5.61,0,0,1-6-5.57V357.37a5.61,5.61,0,0,1,6-5.57h24.32C550.7,351.8,553.12,354.2,553.12,357.37Z"/><path class="cls-2" d="M558,401.66v-1a4.19,4.19,0,0,1,4.43-4.26h.48a4.19,4.19,0,0,1,4.43,4.26v1a4.19,4.19,0,0,1-4.43,4.25h-.48A4.19,4.19,0,0,1,558,401.66Z"/><path class="cls-2" d="M600.3,393.85H583.47L580,405.91H570l16.58-54.11h10.55l16.59,54.11h-10Zm-2.49-8.73-5.88-20.8-6,20.8Z"/><path class="cls-2" d="M616.41,401.66v-1a4.19,4.19,0,0,1,4.42-4.26h.49a4.2,4.2,0,0,1,4.43,4.26v1a4.19,4.19,0,0,1-4.43,4.25h-.49A4.19,4.19,0,0,1,616.41,401.66Z"/><path class="cls-2" d="M666.89,357.37v10.82h-9.82v-6.11c0-1-.41-1.55-1.53-1.55H642c-1.13,0-1.53.55-1.53,1.55v33.55c0,1,.4,1.55,1.53,1.55h13.53c1.12,0,1.53-.54,1.53-1.55v-6.11h9.82v10.83a5.61,5.61,0,0,1-6,5.56H636.62a5.65,5.65,0,0,1-6-5.56v-43c0-3.17,2.49-5.57,6-5.57h24.31C664.47,351.8,666.89,354.2,666.89,357.37Z"/><path class="cls-2" d="M671.8,401.66v-1a4.19,4.19,0,0,1,4.43-4.26h.48a4.19,4.19,0,0,1,4.43,4.26v1a4.19,4.19,0,0,1-4.43,4.25h-.48A4.19,4.19,0,0,1,671.8,401.66Z"/><path class="cls-2" d="M0,75.58V0H86.09V75.58Z"/></g></g></svg>